<svg width="26" height="24" viewBox="0.168212890625 0.375579833984375 25.66357421875 23.24884033203125" fill="none" xmlns="http://www.w3.org/2000/svg">
<path d="M24.7363 23.5536H1.26635C0.813924 23.5536 0.395866 23.3042 0.169656 22.8993C-0.0565547 22.4944 -0.0565517 21.9956 0.169664 21.5907L11.904 0.65311C12.1304 0.248899 12.5481 0 13.0001 0C13.452 0 13.8697 0.248899 14.0961 0.65311L25.8304 21.5907C26.0566 21.9954 26.0567 22.4939 25.8308 22.8987C25.6049 23.3035 25.1872 23.5531 24.735 23.5536H24.7363ZM13.002 3.92461L3.4648 20.9364H22.5416L13.002 3.92461ZM14.262 15.7033H11.7292V9.159H14.262V15.7033Z" fill="#2E3A59"/>
<path d="M11.7356 17.0132H14.2683V19.6304H11.7356V17.0132Z" fill="#2E3A59"/>
</svg>
